# xmcd CD database file
#
# Track frame offsets:
#	150
#	18152
#	33275
#	49407
#	66130
#	83490
#	101015
#	121010
#	139952
#	152582
#	168590
#
# Disc length: 2372 seconds
#
# Revision: 1
# Processed by: cddbd v1.5.1PL2 Copyright (c) Steve Scherf et al.
# Submitted via: CDex 1.51
#
DISCID=8509420b
DTITLE=Teddy Wilson - Cole Porter Classics
DYEAR=1977
DGENRE=Jazz
TTITLE0=Get Out Of Town
TTITLE1=Just One Of Those Things
TTITLE2=I Get A Kick Out Of You
TTITLE3=I Love You
TTITLE4=It's All Right With Me
TTITLE5=Why Shouldn't I
TTITLE6=Love For Sale
TTITLE7=Too Darn Blue
TTITLE8=I've Got You Under My Skin
TTITLE9=Easy To Love
TTITLE10=What Is This Thing Called Love
EXTD=YEAR: 1977
EXTT0=
EXTT1=
EXTT2=
EXTT3=
EXTT4=
EXTT5=
EXTT6=
EXTT7=
EXTT8=
EXTT9=
EXTT10=
PLAYORDER=
